<?xml version="1.0" standalone="no"?>
<!DOCTYPE svg PUBLIC "-//W3C//DTD SVG 20010904//EN"
 "http://www.w3.org/TR/2001/REC-SVG-20010904/DTD/svg10.dtd">
<svg version="1.0" xmlns="http://www.w3.org/2000/svg"
 width="500.000000pt" height="500.000000pt" viewBox="0 0 500.000000 500.000000"
 preserveAspectRatio="xMidYMid meet">
<metadata>
Created by potrace 1.16, written by Peter Selinger 2001-2019
</metadata>
<g transform="translate(0.000000,500.000000) scale(0.100000,-0.100000)"
fill="#000000" stroke="none">
<path d="M840 3857 c-13 -7 -35 -28 -47 -46 l-23 -34 0 -1088 0 -1089 1740 0
1740 0 0 1089 0 1088 -23 34 c-35 52 -57 59 -204 59 l-132 0 2 -57 c1 -32 -1
-70 -6 -85 l-7 -28 100 0 100 0 0 -965 0 -965 -1570 0 -1570 0 0 965 0 965
101 0 c100 0 100 0 93 23 -4 12 -7 50 -6 85 l1 62 -132 0 c-86 0 -141 -5 -157
-13z"/>
<path d="M637 1392 c-14 -15 -17 -41 -17 -142 0 -144 15 -190 78 -234 l38 -26
1776 0 1775 0 40 29 c57 41 71 84 75 229 3 106 1 122 -16 141 l-19 21 -1857 0
c-1786 0 -1858 -1 -1873 -18z m311 -139 c50 -54 6 -153 -68 -153 -43 0 -90 47
-90 90 0 43 16 69 53 85 40 17 76 10 105 -22z m290 22 c26 -7 52 -52 52 -90 0
-39 -50 -85 -93 -85 -99 0 -124 143 -32 180 20 8 28 8 73 -5z"/>
<path d="M1482 760 c-48 -30 -65 -78 -66 -185 0 -159 39 -201 181 -196 45 1
92 46 100 94 l6 37 -41 0 c-34 0 -41 -3 -46 -25 -14 -54 -98 -52 -113 2 -14
53 -8 168 10 197 32 48 107 23 107 -36 0 -14 8 -18 40 -18 36 0 40 2 40 25 0
48 -27 95 -64 110 -50 21 -115 19 -154 -5z"/>
<path d="M2890 575 l0 -195 40 0 40 0 0 195 0 195 -40 0 -40 0 0 -195z"/>
<path d="M3030 575 l0 -195 83 0 c158 1 197 40 197 200 0 155 -35 190 -187
190 l-93 0 0 -195z m142 125 c49 -14 58 -33 58 -125 0 -67 -3 -79 -25 -100
-16 -17 -35 -25 -60 -25 l-35 0 0 130 c0 142 -2 137 62 120z"/>
<path d="M3370 575 l0 -195 120 0 120 0 0 35 0 35 -80 0 -80 0 0 50 0 50 65 0
65 0 0 35 0 35 -65 0 -65 0 0 45 0 45 80 0 80 0 0 30 0 30 -120 0 -120 0 0
-195z"/>
<path d="M1750 515 l0 -135 40 0 39 0 3 93 3 92 33 10 c28 8 32 14 32 42 0 38
-20 44 -58 17 -20 -14 -22 -14 -22 0 0 12 -10 16 -35 16 l-35 0 0 -135z"/>
<path d="M1989 635 c-70 -38 -71 -195 -2 -240 13 -9 45 -16 72 -17 70 0 121
31 121 73 0 14 -63 10 -84 -6 -11 -8 -26 -15 -33 -15 -18 0 -55 39 -48 50 4 6
42 10 86 10 l79 0 0 46 c0 39 -5 51 -34 80 -30 30 -40 34 -82 34 -27 -1 -61
-7 -75 -15z"/>
<path d="M2211 638 c0 -7 20 -65 43 -128 l44 -115 -19 -50 c-10 -27 -19 -53
-19 -57 0 -5 20 -8 44 -8 l45 0 16 56 c9 31 36 110 61 176 24 65 44 123 44
128 0 6 -17 10 -39 10 l-38 0 -24 -80 c-12 -44 -26 -80 -30 -80 -4 0 -10 12
-14 28 -3 15 -13 51 -21 80 -15 51 -16 52 -55 52 -25 0 -39 -5 -38 -12z"/>
<path d="M2536 628 c-13 -13 -27 -33 -31 -45 -6 -21 -3 -23 29 -23 23 0 43 7
56 20 16 16 25 18 40 10 36 -19 23 -38 -31 -45 -69 -10 -103 -40 -102 -90 1
-49 29 -77 77 -77 20 0 48 7 61 16 22 14 25 15 25 1 0 -11 10 -15 36 -15 l36
0 -4 116 c-3 108 -5 117 -27 135 -35 29 -131 27 -165 -3z"/>
</g>
</svg>
